<svg xmlns="http://www.w3.org/2000/svg" viewBox="0 0 236.35 23.85"><defs><style>.cls-1,.cls-2{fill:#c5ac84;}.cls-2{fill-rule:evenodd;}</style></defs><g id="Layer_2" data-name="Layer 2"><g id="Слой_1" data-name="Слой 1"><path class="cls-1" d="M118.55,0a3.14,3.14,0,0,0-2.31,1,3.21,3.21,0,0,0-1,2.32,3.09,3.09,0,0,0,1,2.22,3.24,3.24,0,0,0,4.62,0,3,3,0,0,0,.92-2.22A3.17,3.17,0,0,0,120.86,1a3.14,3.14,0,0,0-2.31-1Zm2.52,7.68a3.74,3.74,0,0,1-1.09.46,3.26,3.26,0,0,1-1.39.09,17,17,0,0,1,1.56,6.3,8.85,8.85,0,0,1-1.22,5.25,17.72,17.72,0,0,0,.5-3.11,16.46,16.46,0,0,0-.08-3.23,14.69,14.69,0,0,0-.8-3A8.07,8.07,0,0,0,117,7.85a8.61,8.61,0,0,1-.38,3.32,5.11,5.11,0,0,1-1.47,2.35,4.18,4.18,0,0,1-2.35,1.09,5.86,5.86,0,0,1-3.15-.59,2.91,2.91,0,0,0,.79,2.23,3.79,3.79,0,0,0,2.1,1.05,4.48,4.48,0,0,0,2.52-.38,5.31,5.31,0,0,0,2.31-2.06,1.9,1.9,0,0,1,.09,1.26,10.43,10.43,0,0,1-.42,1.22l-.63,1.26a3.16,3.16,0,0,0-.38,1.22,3.7,3.7,0,0,0,.46,2.31,4.58,4.58,0,0,0,1.47,1.72,2.5,2.5,0,0,0,1.64-1.34c.38-.72.71-1.43,1-2.14a4.42,4.42,0,0,0,.29-1.47c0-.55,0-1.1,0-1.56a11.26,11.26,0,0,1,0-1.22c0-.37.17-.58.38-.63a.51.51,0,0,1,.55.17,3.79,3.79,0,0,1,.46.59c.17.29.34.55.5.8a1.9,1.9,0,0,0,.76.63,2.51,2.51,0,0,0,2.23.21,3.39,3.39,0,0,0,1.84-1.68,9.84,9.84,0,0,1-3.1-1.77,10.42,10.42,0,0,1-2-2.18,8,8,0,0,1-1.09-2.35,7.78,7.78,0,0,1-.38-2.23ZM140,.12A14.56,14.56,0,0,1,138.67,2a8.26,8.26,0,0,1-1.77,1.56,9.63,9.63,0,0,1-2.73,1.13,18.83,18.83,0,0,1-4.15.5,7.32,7.32,0,0,1-3.45-.58c-.92-.47-1.93-1-3-1.64a2.16,2.16,0,0,1,.08.75,3.4,3.4,0,0,1-.16.8,15.35,15.35,0,0,0,3.31,1.89,10.5,10.5,0,0,0,4.2.84,17.16,17.16,0,0,0,5-.63,10.47,10.47,0,0,0,3.82-1.84,4.27,4.27,0,0,1-2.22,2,12.1,12.1,0,0,1-4.24,1.18,21.07,21.07,0,0,1-5.3-.09,16.6,16.6,0,0,1-5.41-1.72,9.7,9.7,0,0,0,3.61,2.23,13.4,13.4,0,0,0,4.11.67,26.73,26.73,0,0,0,4.41-.3c1.47-.25,2.94-.54,4.41-.84s2.9-.63,4.33-.88a22,22,0,0,1,3.86-.38,2.41,2.41,0,0,0-.17-2,4.84,4.84,0,0,0-1.47-1.94,1.63,1.63,0,0,0-1.21-.37,6.14,6.14,0,0,0-1.26.21c-.47.08-.89.21-1.31.29a1.92,1.92,0,0,1-1.21-.13,1.82,1.82,0,0,0,.42-1.55c-.09-.55-.51-.88-1.22-1Zm5.46,1.6a6.63,6.63,0,0,1,1.89,1.85A3.42,3.42,0,0,1,148,5.75a3.11,3.11,0,0,1-.38,1.51c-.29.42-.58.88-.88,1.3s-.54.85-.8,1.22a2.46,2.46,0,0,0-.29,1.35,1.65,1.65,0,0,0,.67,1,3.25,3.25,0,0,0,1.3.51,4.56,4.56,0,0,0,1.64,0,4.16,4.16,0,0,0,1.51-.55,4.73,4.73,0,0,0,1.85-2.18A2.86,2.86,0,0,0,152.31,7a5.32,5.32,0,0,1-.71,1.89,5.52,5.52,0,0,1-1.18,1.55,4.58,4.58,0,0,1-1.46.93,1.89,1.89,0,0,1-1.56-.21,4.15,4.15,0,0,0,2.81-1.47,4.51,4.51,0,0,0,1.14-3.32,4,4,0,0,0-.51-1.89,5.61,5.61,0,0,0-1.3-1.59,4.72,4.72,0,0,0-1.89-1,3.9,3.9,0,0,0-2.22-.13Zm-27.09-.29c.34,0,.5.12.5.42s-.16.54-.5.54-.42-.17-.42-.54.13-.42.42-.42Z"/><path class="cls-1" d="M3.28,1A3.13,3.13,0,0,0,1,1.93,3.21,3.21,0,0,0,0,4.24,3.1,3.1,0,0,0,1,6.47a3.16,3.16,0,0,0,2.31,1,3.18,3.18,0,0,0,2.31-1,3.09,3.09,0,0,0,.92-2.23,3.21,3.21,0,0,0-.92-2.31A3.15,3.15,0,0,0,3.28,1ZM3.07,2.39c.33,0,.5.13.5.42s-.17.55-.5.55-.42-.17-.42-.55.12-.42.42-.42Z"/><path class="cls-1" d="M233.11,1.68a3,3,0,0,1,2.27,1,3,3,0,0,1,1,2.27,3,3,0,0,1-1,2.23,3,3,0,0,1-2.27,1,3.08,3.08,0,0,1-2.35-1,3.22,3.22,0,0,1-.92-2.23,3.26,3.26,0,0,1,.92-2.27,3.08,3.08,0,0,1,2.35-1Zm.17,1.38c-.34,0-.5.17-.5.47a.44.44,0,0,0,.5.5c.29,0,.46-.17.46-.5a.42.42,0,0,0-.46-.47Z"/><path class="cls-1" d="M97.26.12a18.33,18.33,0,0,0,1.26,1.81,7,7,0,0,0,1.76,1.55,11,11,0,0,0,2.77,1.18,18.24,18.24,0,0,0,4.12.5,7,7,0,0,0,3.44-.63,29.94,29.94,0,0,0,3-1.59,1.9,1.9,0,0,0-.13.75,3.44,3.44,0,0,0,.17.76,16.69,16.69,0,0,1-3.32,1.93,10.48,10.48,0,0,1-4.2.8,16.78,16.78,0,0,1-5-.63A9.72,9.72,0,0,1,97.39,4.7a4.3,4.3,0,0,0,2.18,2.06,12.88,12.88,0,0,0,4.24,1.18,23.51,23.51,0,0,0,5.33-.13,15.54,15.54,0,0,0,5.38-1.72,9.63,9.63,0,0,1-3.61,2.27,13.21,13.21,0,0,1-4.12.63,26.73,26.73,0,0,1-4.41-.3c-1.47-.25-2.94-.5-4.41-.84S95.08,7.26,93.69,7a22.88,22.88,0,0,0-3.91-.38A2.51,2.51,0,0,1,90,4.53,5.29,5.29,0,0,1,91.42,2.6a1.78,1.78,0,0,1,1.22-.38c.42,0,.84.13,1.3.21s.84.21,1.26.3a2,2,0,0,0,1.22-.13A1.68,1.68,0,0,1,96,1.09c.08-.59.5-.88,1.26-1Zm-5.5,1.6a5.79,5.79,0,0,0-1.89,1.81,3.71,3.71,0,0,0-.72,2.18,2.78,2.78,0,0,0,.42,1.51c.26.46.55.88.84,1.3a9.78,9.78,0,0,1,.8,1.26,2,2,0,0,1,.3,1.3,1.54,1.54,0,0,1-.68,1,3.14,3.14,0,0,1-1.3.51,4.36,4.36,0,0,1-1.64,0,4.13,4.13,0,0,1-1.47-.5,4.79,4.79,0,0,1-1.88-2.22A2.78,2.78,0,0,1,84.87,7a6.29,6.29,0,0,0,.72,1.85,5.12,5.12,0,0,0,1.21,1.59,3.78,3.78,0,0,0,1.47.89,1.82,1.82,0,0,0,1.51-.21A4.09,4.09,0,0,1,87,9.66a4.48,4.48,0,0,1-1.13-3.28,3.82,3.82,0,0,1,.5-1.89,5.57,5.57,0,0,1,1.3-1.63,5.82,5.82,0,0,1,1.89-1,3.93,3.93,0,0,1,2.23-.09Z"/><path class="cls-2" d="M151.85,3,233.11,4.2v.67l-80.33,1.3c.46-.88-.17-2.1-.93-3.15Z"/><path class="cls-2" d="M84.49,3,3.28,4.2v.67l80.29,1.3c-.46-.88.17-2.1.92-3.15Z"/></g></g></svg>