<svg xmlns="http://www.w3.org/2000/svg" viewBox="0 0 134.86 160.4"><defs><style>.cls-1{fill:#5b8b30;}</style></defs><g id="Layer_2" data-name="Layer 2"><g id="Layer_1-2" data-name="Layer 1"><path class="cls-1" d="M101.7,159.26a1,1,0,1,1,0-2.07h7.35a1.55,1.55,0,0,0,1.6-1.6V6.2a4.35,4.35,0,0,0-3.9-4.59H50.53c-4.13,0-5.74,1.83-5.74,5.73L38.37,111.53c-2.76,45.66-19.51,48.87-26.85,48.87-4.82,0-12.16-2.06-11.47-8,.68-5.27,5.27-6.19,9.63-5.5,15.84,2.52,25-6,26.85-35.12L43,7.34c0-3.9-1.84-5.73-5.74-5.73H34.7A.81.81,0,1,1,34.7,0h99.13c.92,0,.92,1.61,0,1.61h-5.05c-3.67,0-5,1.6-5,5V155.59c0,1.14.46,1.6,1.61,1.6h8.49a1,1,0,0,1,0,2.07Z"/></g></g></svg>