<svg xmlns="http://www.w3.org/2000/svg" viewBox="0 0 528.49 109.23"><defs><style>.cls-1{fill:#5b8b30;}</style></defs><g id="Layer_2" data-name="Layer 2"><g id="Layer_1-2" data-name="Layer 1"><path class="cls-1" d="M0,54.16V52.32C0,17.67,22.26.23,49.11,0h.23C71.6,0,88.81,14.46,90.41,36.72c.23,3.21-.91,4.59-4.59,4.59H13.08c-.23,3.44-.46,7.11-.46,11v1.84c0,30.75,9.87,53,35.8,53.69h.92c18.81-.45,33.27-14.91,30.29-33.5-.69-4.13,1.15-6.2,4.82-6.2,4.82,0,6.19,3.91,6.19,7.81,0,19.73-23.4,33.27-42,33.27h-.23C16.06,108.77,0,84.45,0,54.16ZM49.34,1.38c-17,0-32.36,11-36,38.55h61c2.3,0,3.67-.69,3.67-3.67C78,17,69.76,1.38,49.34,1.38Z"/><path class="cls-1" d="M157.19,1.15c-20.65,0-37.86,16.06-37.86,51.63V55.3c0,30.52,9,51.87,37.17,51.87,22.95,0,33.28-18.59,28.92-31.67-3-9,10.32-12.16,11.24-.69,1.38,16.75-18.13,33.5-40.16,33.5-34.42-.23-50-22.94-50-53V52.78C106.48,17.9,133.1,0,157.19,0h1.61c23.41,0,39.47,11.24,37.63,28-1.37,12.39-15.14,8.49-11.93.23,5.05-12.86-4.13-27.08-25.7-27.08Z"/><path class="cls-1" d="M231.77,105.79h8.95a.69.69,0,0,1,0,1.38H207.91a.69.69,0,1,1,0-1.38h9c.68,0,1.6-.23,1.6-1.38V5.05c0-1.15-.46-1.38-1.6-1.38h-9a.69.69,0,1,1,0-1.38h32.81a.69.69,0,0,1,0,1.38h-8.95c-1.37,0-1.37.23-1.37,1.38V49.57h56.91V5.05c0-1.15-.46-1.38-1.61-1.38h-8.95a.69.69,0,1,1,0-1.38h32.82a.69.69,0,0,1,0,1.38h-8.95c-1.38,0-1.38.23-1.38,1.38v99.36c0,1.15.46,1.38,1.38,1.38h8.95a.69.69,0,0,1,0,1.38H276.75a.69.69,0,1,1,0-1.38h8.95c.69,0,1.61-.23,1.61-1.38V51.17H230.4v53.24C230.4,105.56,230.85,105.79,231.77,105.79Z"/><path class="cls-1" d="M422.7,51.63v2.53c0,29.83-17.44,53.92-50.26,53.92-32.58,0-50-24.09-50-53.92V51.63a40.48,40.48,0,0,1,8.72-24.32C331.14,11.24,351.79,0,372.67,0,399.52,0,422.7,16.75,422.7,51.63Zm-78.48-23.4c2.52,9.17-6.66,12.62-11,6.42.46,5.05,1.61,10.56,1.61,17v2.53c0,30.29,11.24,52.55,37.63,52.55,26.62,0,37.64-22.26,37.64-52.55V51.63c0-36.71-18.13-50.25-37.41-50.25C352.71,1.38,340.78,14.92,344.22,28.23Z"/><path class="cls-1" d="M437.84,54.16V52.32C437.84,17.67,460.1.23,487,0h.23c22.26,0,39.47,14.46,41.08,36.72.23,3.21-.92,4.59-4.59,4.59H450.93c-.23,3.44-.46,7.11-.46,11v1.84c0,30.75,9.86,53,35.79,53.69h.92c18.82-.45,33.28-14.91,30.29-33.5-.68-4.13,1.15-6.2,4.82-6.2,4.82,0,6.2,3.91,6.2,7.81,0,19.73-23.41,33.27-42,33.27h-.23C453.91,108.77,437.84,84.45,437.84,54.16ZM487.18,1.38c-17,0-32.35,11-36,38.55h61c2.29,0,3.67-.69,3.67-3.67C515.87,17,507.61,1.38,487.18,1.38Z"/></g></g></svg>